<svg viewBox="0 0 201.48 40" xmlns="http://www.w3.org/2000/svg" xmlns:xlink="http://www.w3.org/1999/xlink" width="201.479553" height="40.000000" fill="none" customFrame="#000000">
	<rect id="组合 9" width="201.479523" height="40.000000" x="0.000000" y="0.000000" />
	<path id="矢量 8" d="M0.3443 2.29496L6.36821 9.15205C8.68935 11.7844 10.1832 13.4609 10.8496 14.1812L11.5112 14.8966L12.0121 15.4453C13.2693 16.8299 14.3257 18.0542 14.6298 18.4952L14.6651 18.5483C15.436 19.6744 15.4524 21.483 14.7143 22.5611L14.6651 22.6305C14.1948 23.2736 9.71071 28.2931 1.21292 37.6888C0.715412 38.2391 0.739084 39.1061 1.26614 39.6255C1.50978 39.8657 1.83223 39.9996 2.16737 39.9996L14.5075 40L17.7897 39.9902C26.6434 39.9539 27.9455 39.8329 30.0071 39.0672L30.077 39.0411C35.7743 36.9591 39.3714 30.2742 37.1921 25.8085L37.112 25.6502C36.7719 24.992 36.3676 24.3636 36.1419 24.1353L36.1157 24.1098C35.8794 23.8906 35.3281 23.2058 34.9079 22.5756C33.2968 20.108 34.2577 17.4523 37.3326 15.9107L37.5888 15.7857C39.0283 15.0924 39.43 15.0377 43.2308 14.9319L43.7224 14.919C47.9821 14.7949 49.3897 14.4077 51.895 12.8497C53.3912 11.9076 56.3572 9.00879 57.6558 7.24455L58.0241 6.7229L60.4564 3.20115C60.68 2.87661 60.9171 2.5323 61.1678 2.1681C61.5916 1.55427 61.457 0.698411 60.8681 0.257094C60.6451 0.0901381 60.3775 0 60.103 0L41.6909 0.000587211C39.2735 0.000587211 36.9303 0.870781 35.0564 2.46441L30.8898 6.00767C30.1485 6.63818 29.0679 6.57 28.4046 5.8511L25.6388 2.85275L25.3988 2.62127C22.8695 0.195785 22.0858 0.0115611 14.7244 0.000587211L1.31243 0C0.587409 0.00043985 0 0.61398 0 1.37048C0 1.71273 0.122906 2.04241 0.3443 2.29496Z" fill="rgb(255,255,255)" fill-rule="nonzero" />
	<g id="组合 2">
		<path id="矢量 17" d="M100.715 9.73737C99.5834 11.0362 98.1857 12.2365 96.5217 13.3378C98.5569 14.2716 100.703 15.0946 102.959 15.807L100.679 18.1953C98.3982 17.507 95.983 16.4773 93.433 15.1066C91.4936 16.0643 88.9048 17.058 85.6665 18.0875L83.2063 15.8788C85.9778 15.0707 88.381 14.1998 90.4162 13.266C89.3627 12.5836 88.6025 12.0569 88.1356 11.6857L87.3994 12.5657L83.6822 12.5657C86.0645 9.65063 88.0398 6.79541 89.6081 4L93.4689 4C93.1517 4.56261 92.7596 5.17621 92.2927 5.84063L98.6496 5.84063C99.2901 5.84063 99.8288 5.95142 100.266 6.17284C100.709 6.39426 101.041 6.69954 101.262 7.08866C101.412 7.33414 101.487 7.61536 101.487 7.93266C101.487 8.54914 101.229 9.15071 100.715 9.73737ZM72.4319 29.3737L73.1322 29.3737C73.4734 29.3737 73.7428 29.3617 73.9403 29.3378L77.029 4.03591L79.9291 4.03591L76.8404 29.1942L78.3848 29.0864L81.0335 8.633L83.9067 8.633L80.9257 31.9147L76.9212 32.2469L76.1491 32.2828C74.1379 32.4026 72.6294 32.4624 71.6238 32.4624C70.1513 32.4624 69.4151 31.7172 69.4151 30.2267C69.4151 29.9035 69.427 29.658 69.451 29.4905L72.1356 8.633L74.9639 8.633L72.4319 29.3737ZM89.8236 9.44108C90.901 10.2492 92.0772 11.0213 93.3522 11.7576C94.7289 10.9495 95.8692 10.1175 96.7731 9.2615C96.9946 9.04008 97.1053 8.88135 97.1053 8.78563C97.1053 8.68382 97.0485 8.62097 96.9347 8.59708C96.827 8.57319 96.6265 8.56117 96.3331 8.56117L90.4521 8.56117C90.2067 8.95623 89.9972 9.24948 89.8236 9.44108ZM93.0649 31.2503L92.5082 36L89.2041 36L89.7518 31.2503L82.2905 31.2503L82.6137 28.3502L90.1199 28.3502L90.3444 26.4736L84.3107 26.4736L84.6429 23.6723L90.6676 23.6723L90.8921 21.7598L84.3107 21.7598L84.6429 18.8956L91.2243 18.8956L91.4847 16.7587L94.7888 16.7587L94.5374 18.8956L101.119 18.8956L100.787 21.7598L94.2052 21.7598L93.9807 23.6723L100.086 23.6723L99.754 26.4736L93.6485 26.4736L93.433 28.3502L101.002 28.3502L100.679 31.2503L93.0649 31.2503Z" fill="rgb(255,255,255)" fill-rule="nonzero" />
		<path id="矢量 16" d="M123.666 4L123.033 9.154L130.221 9.154L130.701 5.07601L134.408 5.07601L133.594 12.373L110.22 12.373C109.382 12.373 108.758 12.1379 108.348 11.6677C107.945 11.1975 107.743 10.5555 107.743 9.74174C107.743 9.42219 107.755 9.17515 107.779 9.00028L108.258 5.03984L112.038 5.03984L111.558 9.154L119.335 9.154L119.922 4L123.666 4ZM127.111 19.4439C125.507 21.5176 123.705 23.5942 121.704 25.6739L126.849 31.8949L128.63 17.7078L111.739 17.7078L111.296 21.406C110.953 24.5467 110.359 27.3648 109.515 29.8604C108.677 32.3501 107.652 34.3965 106.441 36L102.959 34.8517C104.243 33.2724 105.307 31.2498 106.151 28.7844C106.941 26.4877 107.483 24.0283 107.779 21.406L108.258 17.2286C108.481 15.4504 109.542 14.5612 111.441 14.5612L129.181 14.5612C130.248 14.5612 131.014 14.7782 131.478 15.2122C131.948 15.6403 132.183 16.3244 132.183 17.2648C132.183 17.4094 132.159 17.729 132.111 18.2232L130.556 31.1896L130.556 31.2981C130.556 31.497 130.592 31.6417 130.664 31.7321C130.743 31.8166 130.878 31.8587 131.071 31.8587C131.246 31.8587 131.382 31.8437 131.478 31.8135C132.443 31.6448 133.703 31.2379 135.258 30.5928L134.815 34.5985C133.163 35.1651 131.436 35.5087 129.634 35.6293C128.645 35.7076 127.891 35.4996 127.373 35.0054C126.855 34.5111 126.656 33.7454 126.776 32.7087L126.849 32.1119L123.521 33.1879L119.371 27.9616C117.864 29.3481 115.938 30.9424 113.593 32.7448L110.076 31.2981C113.011 29.1521 115.431 27.202 117.336 25.4479L116.595 24.5617C114.744 22.3133 113.325 20.6194 112.336 19.4801L116.369 19.4801L119.633 23.2235C120.917 21.8913 122.038 20.6315 122.997 19.4439L127.111 19.4439Z" fill="rgb(255,255,255)" fill-rule="nonzero" />
		<path id="矢量 15" d="M149.868 4L145.961 10.6128L142.962 36L139.238 36L141.458 17.5924C140.877 18.4729 140.214 19.3993 139.468 20.3715L135.258 20.3715C138.89 15.4921 142.396 10.035 145.778 4L149.868 4ZM157.609 4.11006L161.214 4.11006L160.691 8.20063L168.019 8.20063L167.597 11.585L160.278 11.585L159.71 16.0516L168.652 16.0516L168.239 19.4359L147.319 19.4359L147.695 16.0516L156.142 16.0516L156.71 11.585L149.346 11.585L149.722 8.20063L157.123 8.20063L157.609 4.11006ZM155.802 20.454L159.416 20.454L158.957 24.0952L166.515 24.0952L166.102 27.4795L158.508 27.4795L157.912 32.3222L167.68 32.3222L167.267 35.7065L145.209 35.7065L145.585 32.3222L154.344 32.3222L154.94 27.4795L147.539 27.4795L147.915 24.0952L155.353 24.0952L155.802 20.454Z" fill="rgb(255,255,255)" fill-rule="nonzero" />
		<path id="矢量 14" d="M181.398 7.01768L186.068 7.01768L185.735 10.0354L171.976 10.0354L172.345 7.01768L177.715 7.01768L176.727 4L180.293 4L181.398 7.01768ZM193.863 4.36823L193.136 6.31715L192.471 7.96969L197.77 7.96969C199.046 7.96969 199.983 8.21523 200.581 8.70615C201.18 9.19707 201.48 9.96945 201.48 11.0233C201.48 11.4664 201.333 12.9871 201.039 15.5857L200.779 18.0107L200.267 22.3576C200.046 24.2916 199.716 27.0008 199.279 30.4855L199.162 31.4376C198.995 32.641 198.8 33.5481 198.579 34.1589C198.357 34.7755 197.938 35.2425 197.321 35.5599C196.734 35.8533 196.073 36 195.336 36C194.899 36 194.558 35.9761 194.313 35.9282C193.624 35.8324 192.714 35.6377 191.582 35.3444L188.717 34.5271L189.157 31.0693C190.289 31.3926 190.867 31.5543 190.891 31.5543L192.247 31.8866C192.983 32.0783 193.78 32.2489 194.636 32.3985C194.738 32.4224 194.86 32.4345 195.004 32.4345C195.178 32.4345 195.288 32.3865 195.336 32.2908C195.384 32.1889 195.435 31.9913 195.489 31.698C195.735 30.2251 196.016 28.3001 196.333 25.9231L196.666 23.1659C196.935 21.0822 197.142 19.304 197.285 17.831C197.585 15.2804 197.794 13.1339 197.914 11.3915L190.891 11.3915C190.519 12.1519 189.942 13.2327 189.157 14.6337L185.52 14.6337C186.891 12.0531 187.798 10.2868 188.241 9.33483C188.828 8.0834 189.538 6.42797 190.37 4.36823L193.863 4.36823ZM173.638 11.2837L176.691 11.2837L177.572 15.0738L179.664 15.0738L181.362 11.2837L184.559 11.2837L182.87 15.0738L185.996 15.0738L185.664 18.1633L170.656 18.1633L171.024 15.0738L174.518 15.0738L173.638 11.2837ZM194.348 20.8846L188.089 18.1633L188.493 14.7774L194.717 17.5706L194.348 20.8846ZM182.799 35.1558L170.252 35.1558L171.608 23.5341C171.734 22.3545 172.072 21.5133 172.623 21.0104C173.174 20.5074 174.015 20.256 175.147 20.256L181.137 20.256C182.269 20.256 183.11 20.5762 183.661 21.217C184.212 21.8516 184.424 22.7587 184.298 23.9383L182.799 35.1558ZM195.157 25.3752C193.564 26.0817 192.031 26.7314 190.558 27.3242C190.115 27.4918 188.804 27.9559 186.625 28.7162L185.52 29.0845L185.96 25.483C186.325 25.3573 187.146 25.0758 188.421 24.6388L190.594 23.8305C191.87 23.3396 193.537 22.6509 195.597 21.7648L195.157 25.3752ZM181.065 23.3455L174.958 23.3455L174.626 26.1476L180.697 26.1476L181.065 23.3455ZM173.925 31.9944L179.889 31.9944L180.293 29.0845L174.258 29.0845L173.925 31.9944Z" fill="rgb(255,255,255)" fill-rule="nonzero" />
	</g>
</svg>
