<svg viewBox="0 0 1000 1000" xmlns="http://www.w3.org/2000/svg" xmlns:xlink="http://www.w3.org/1999/xlink" width="1000.000000" height="1000.000000" fill="none" customFrame="#000000">
	<g id="组合 4">
		<rect id="矩形 10" width="1000.000000" height="1000.000000" x="0.000000" y="0.000000" fill="rgb(255,107,53)" />
		<path id="矢量 15" d="M225.846 335.199L289.601 407.773C314.168 435.633 329.978 453.376 337.032 461L344.034 468.572L349.335 474.379C362.641 489.032 373.822 501.99 377.04 506.658L377.414 507.22C385.572 519.138 385.746 538.28 377.934 549.691L377.414 550.425C372.436 557.231 324.978 610.356 235.039 709.798C229.774 715.622 230.024 724.798 235.603 730.296C238.181 732.837 241.594 734.254 245.141 734.254L375.746 734.259L410.484 734.155C504.188 733.771 517.97 732.49 539.789 724.386L540.528 724.11C600.828 702.074 638.898 631.324 615.833 584.06L614.985 582.384C611.385 575.419 607.107 568.767 604.717 566.351L604.44 566.082C601.939 563.762 596.105 556.514 591.657 549.844C574.606 523.727 584.776 495.621 617.32 479.304L620.031 477.981C635.267 470.644 639.518 470.064 679.745 468.945L684.948 468.808C730.032 467.495 744.929 463.397 771.445 446.907C787.28 436.937 818.671 406.256 832.415 387.584L836.314 382.063L862.055 344.79C864.422 341.355 866.932 337.711 869.585 333.856C874.071 327.36 872.646 318.302 866.413 313.631C864.053 311.864 861.221 310.91 858.316 310.91L663.447 310.916C637.862 310.916 613.062 320.126 593.23 336.992L549.131 374.493C541.285 381.167 529.848 380.445 522.829 372.836L493.556 341.103L491.016 338.653C464.246 312.982 455.952 311.032 378.041 310.916L236.092 310.91C228.419 310.915 222.202 317.408 222.202 325.415C222.202 329.037 223.503 332.526 225.846 335.199Z" fill="rgb(255,255,255)" fill-rule="nonzero" />
	</g>
</svg>
